<svg xmlns="http://www.w3.org/2000/svg" width="186" height="186" viewBox="0 0 186 186">
  <defs>
    <style>
      .cls-1, .cls-4 {
        fill: #33b873;
      }

      .cls-2 {
        fill: #fff;
      }

      .cls-2, .cls-3, .cls-4 {
        fill-rule: evenodd;
      }

      .cls-3 {
        fill: #60d698;
      }
    </style>
  </defs>
  <circle id="circle" class="cls-1" cx="92.563" cy="92.531" r="93.063"/>
  <path id="leaf_foreground" data-name="leaf foreground" class="cls-2" d="M146.122,52.87s2.271,26.849-15.731,44.85c-14.827,14.827-38.383,7.677-38.383,7.677s-5.564-25.143,7.677-38.384C114.512,52.186,146.122,52.87,146.122,52.87Z"/>
  <path id="leaf_background" data-name="leaf background" class="cls-3" d="M38.878,70.87s-2.271,26.849,15.731,44.85c14.827,14.827,38.383,7.677,38.383,7.677s5.564-25.143-7.677-38.384C70.488,70.186,38.878,70.87,38.878,70.87Z"/>
  <path id="veins" class="cls-4" d="M95.337,123.424l-2.094,1.525L46.909,81.783,49,80.257ZM47.927,79.719a1.25,1.25,0,1,1-1.25,1.25A1.25,1.25,0,0,1,47.927,79.719Z"/>
  <path id="stem" class="cls-2" d="M90.681,92.779H95.7v57.709H90.681V92.779Zm2.522,54.9a2.469,2.469,0,1,1-2.484,2.469A2.476,2.476,0,0,1,93.2,147.675Z"/>
</svg>
